<svg xmlns="http://www.w3.org/2000/svg" viewBox="0 0 64 64"><g id="Unlock"><path d="M37 29H15V19a9 9 0 0 1 18 0v3.3c0 3.96 6 3.97 6 0V19a15 15 0 0 0-30 0v10.3A7.01 7.01 0 0 0 4 36v18a7 7 0 0 0 7 7h26a7 7 0 0 0 7-7V36a7 7 0 0 0-7-7zm1 25a1 1 0 0 1-1 1H11a1 1 0 0 1-1-1V36a1 1 0 0 1 1-1h26a1 1 0 0 1 1 1z" style="fill:#fff"/><path d="M26.97 44.66c.05.47.03 3.87.03 4.34 0 3.96-6 3.97-6 0 0-.47-.02-3.87.03-4.34a4 4 0 1 1 5.94 0zM50 20.68l4.56-2.07c3.6-1.65 6.1 3.81 2.5 5.46l-4.57 2.07c-3.6 1.64-6.13-3.8-2.49-5.46zM42.64 16.22l2.15-4.52c1.7-3.58 7.12-1 5.42 2.58l-2.15 4.52c-1.7 3.58-7.14 1.03-5.42-2.58zM55.85 35.9l-4.84-1.34c-3.82-1.05-2.23-6.83 1.6-5.78l4.84 1.34c3.78 1.04 2.28 6.85-1.6 5.78z" style="fill:#fff"/></g></svg>