<!-- icon666.com - MILLIONS OF FREE VECTOR ICONS --><svg fill="#fff" id="Capa_1" enable-background="new 0 0 512 512" viewBox="0 0 512 512" xmlns="http://www.w3.org/2000/svg"><g><path d="m251.474 388.783c-.318-2.58-1.949-4.812-4.31-5.897l-24.192-11.126c2.293-19.303-4.359-38.699-18.184-52.524l-34.01-34.01c-14.061-14.06-33.673-20.649-53.222-18.094l-8.361-18.883c11.641-11.933 18.031-27.578 18.031-44.356v-48.097c0-35.076-28.537-63.613-63.613-63.613s-63.613 28.538-63.613 63.614v48.097c0 35.076 28.537 63.613 63.613 63.613.868 0 1.739-.028 2.609-.064l10.092 22.792c-20.322 25.101-18.563 61.888 4.502 84.952l34.009 34.01c11.787 11.787 27.456 18.402 44.121 18.626.292.004.583.006.875.006 14.943 0 29.171-5.168 40.576-14.648l12.536 5.765c1.001.46 2.07.686 3.133.686 1.676 0 3.338-.562 4.694-1.65l27.963-22.433c2.028-1.626 3.069-4.187 2.751-6.766zm-91.303-92.95 34.01 34.01c9.386 9.386 14.426 22.136 14.21 35.212l-17.937-8.249c-1.357-5.636-4.209-10.766-8.34-14.896l-16.801-16.801c-2.929-2.929-7.678-2.929-10.606 0-2.929 2.929-2.929 7.678 0 10.606l14.979 14.979c-8.118.741-15.637 5.673-19.281 13.595-1.766 3.84-2.4 7.914-2.055 11.85-.08-.077-.168-.142-.246-.221l-34.01-34.01c-.564-.564-1.065-1.175-1.537-1.806.393.02.785.055 1.178.055 3.238 0 6.471-.678 9.52-2.028 5.748-2.545 10.16-7.176 12.424-13.04s2.11-12.258-.435-18.006l-11.265-25.44c13.419-.505 26.525 4.522 36.192 14.19zm-96.435-71.053c-.923-2.084-.979-4.402-.158-6.528s2.421-3.805 4.505-4.728c1.106-.49 2.277-.735 3.452-.735 1.039 0 2.079.192 3.077.578 2.126.821 3.805 2.421 4.728 4.505l42.192 95.286c.923 2.084.979 4.402.158 6.528s-2.421 3.805-4.505 4.728c-2.083.923-4.402.979-6.528.158s-3.805-2.421-4.728-4.505zm-16.672-20.886v-48.097c0-9.125 7.423-16.548 16.548-16.548s16.548 7.423 16.548 16.548v43.641c-.05-.02-.096-.045-.146-.065-5.863-2.264-12.258-2.11-18.005.435-5.714 2.53-10.104 7.125-12.381 12.941-1.634-2.585-2.564-5.632-2.564-8.855zm-32.064 0v-48.097c0-26.805 21.808-48.613 48.613-48.613s48.613 21.808 48.613 48.613v48.097c0 10.723-3.421 20.838-9.742 29.199l-8.76-19.784c.95-3.039 1.437-6.196 1.437-9.416v-48.097c0-17.396-14.152-31.548-31.548-31.548s-31.548 14.152-31.548 31.548v48.097c0 12.616 7.44 23.837 18.79 28.844l8.672 19.584c-24.899-2.083-44.527-22.999-44.527-48.427zm144.148 208.931c-12.734-.171-24.708-5.226-33.716-14.234l-34.009-34.01c-15.675-15.675-18.468-39.638-7.977-58.24l8.767 19.799c.574 1.298 1.269 2.516 2.047 3.669-.108 8.486 3.188 16.665 9.23 22.707l34.01 34.01c5.954 5.954 13.954 9.241 22.294 9.241.834 0 1.672-.038 2.511-.104l22.412 10.307c-7.647 4.579-16.433 6.982-25.569 6.855zm55.841-9.443-46.769-21.509c-4.274-1.965-6.152-7.042-4.187-11.316 1.437-3.123 4.534-4.967 7.765-4.967 1.191 0 2.401.25 3.552.78l54.521 25.074z"/><path d="m448.387 44.088c-35.076 0-63.613 28.537-63.613 63.613v48.097c0 16.46 6.45 32.309 17.803 44.113l-7.932 19.151c-19.621-2.632-39.302 3.945-53.423 18.068l-34.01 34.01c-14.631 14.631-21.194 35.37-17.715 55.73l-9.38 5.126c-2.493 1.362-4.002 4.016-3.899 6.855l1.307 35.826c.095 2.598 1.528 4.961 3.788 6.246 1.149.653 2.428.98 3.708.98 1.237 0 2.475-.306 3.597-.918l25.483-13.926c10.979 8.23 24.286 12.675 38.075 12.675.844 0 1.693-.017 2.54-.05 16.03-.632 31.109-7.231 42.46-18.582l34.009-34.01c11.276-11.276 17.871-26.254 18.57-42.175.678-15.444-4.241-30.481-13.846-42.487l9.565-23.093c.971.044 1.944.073 2.913.073 35.076 0 63.613-28.537 63.613-63.613v-48.097c0-35.075-28.537-63.612-63.613-63.612zm-16.964 125.38c1.8-4.347 6.802-6.418 11.147-4.618 2.106.872 3.746 2.512 4.618 4.618.872 2.105.872 4.424 0 6.53l-39.878 96.278c-1.8 4.347-6.8 6.419-11.147 4.618-2.106-.872-3.746-2.512-4.618-4.618-.872-2.105-.872-4.424 0-6.53zm-70.131 144.986c-3.014-5.516-7.996-9.528-14.028-11.297-1.531-.449-3.083-.738-4.637-.873l31.875-31.875c.442-.442.909-.847 1.389-1.232.021 2.996.615 5.989 1.796 8.841 2.406 5.807 6.929 10.33 12.736 12.735 2.823 1.169 5.746 1.741 8.63 1.783-.359.441-.74.868-1.148 1.276l-33.802 33.802c.371-4.532-.58-9.077-2.811-13.16zm-43.473-32.708 34.01-34.01c9.825-9.825 23.175-14.85 36.805-14.16l-7.183 17.341c-6.623.995-12.733 4.062-17.556 8.885l-34.009 34.009c-4.323 4.322-7.231 9.708-8.507 15.636l-17.699 9.672c-.853-13.826 4.208-27.442 14.139-37.373zm-26.442 61.19 45.173-24.685c2-1.094 4.306-1.341 6.493-.701 2.187.642 3.993 2.096 5.086 4.096s1.341 4.306.7 6.493-2.096 3.993-4.096 5.086l-52.66 28.776zm129.201-26.451-34.009 34.01c-15.336 15.336-39.003 18.313-57.488 8.378l20.709-11.317c.927.045 2.319.113 2.417.113 8.424 0 16.327-3.271 22.295-9.24l34.01-34.01c5.553-5.553 8.778-12.812 9.192-20.595 1.395-1.72 2.576-3.659 3.466-5.807l7.859-18.974c10.107 18.579 7.097 41.894-8.451 57.442zm76.422-160.688c0 25.688-20.031 46.772-45.291 48.487l7.862-18.981c12.157-4.585 20.365-16.231 20.365-29.506v-48.097c0-17.396-14.152-31.548-31.548-31.548s-31.548 14.152-31.548 31.548v18.942c0 4.142 3.358 7.5 7.5 7.5s7.5-3.358 7.5-7.5v-18.942c0-9.125 7.423-16.548 16.548-16.548s16.548 7.423 16.548 16.548v48.097c0 3.64-1.185 7.04-3.217 9.806-.202-.63-.416-1.258-.672-1.876-2.406-5.807-6.929-10.33-12.736-12.735-11.986-4.963-25.78.748-30.746 12.736l-8.529 20.591c-5.958-8.235-9.261-18.223-9.261-28.522v-48.097c0-26.805 21.808-48.613 48.613-48.613s48.612 21.809 48.612 48.614z"/><path d="m230.447 296.367c-2.056-3.597-6.638-4.847-10.233-2.791-3.596 2.055-4.846 6.636-2.791 10.233l32.064 56.113c1.384 2.422 3.915 3.78 6.519 3.78 1.262 0 2.541-.319 3.714-.99 3.596-2.055 4.846-6.636 2.791-10.233z"/><path d="m271.516 308.104v-24.048c0-4.142-3.358-7.5-7.5-7.5s-7.5 3.358-7.5 7.5v24.048c0 4.142 3.358 7.5 7.5 7.5s7.5-3.358 7.5-7.5z"/><path d="m330.974 405.368-19.573-7.972c-3.834-1.562-8.213.28-9.775 4.117-1.562 3.836.28 8.212 4.117 9.775l19.573 7.972c.926.377 1.884.556 2.827.556 2.959 0 5.763-1.763 6.948-4.673 1.562-3.836-.281-8.213-4.117-9.775z"/><path d="m251.905 419.338c-3.979-1.158-8.14 1.131-9.295 5.109l-9.844 33.87c-1.156 3.978 1.131 8.139 5.109 9.295.699.203 1.403.3 2.097.3 3.25 0 6.246-2.13 7.199-5.409l9.844-33.87c1.154-3.977-1.133-8.139-5.11-9.295z"/><path d="m281.406 403.765c-2.001-3.627-6.562-4.944-10.19-2.943-3.626 2.001-4.944 6.563-2.943 10.19l29.257 53.022c1.367 2.478 3.93 3.878 6.573 3.878 1.225 0 2.468-.301 3.617-.935 3.626-2.001 4.944-6.563 2.943-10.19z"/></g></svg>