<svg xmlns="http://www.w3.org/2000/svg" fill="none" viewBox="0 0 24 24"><path fill="#fff" fill-rule="evenodd" d="M12.2508 9.465c1.3636-.9833 2.0376-1.5242 2.0376-2.6385 0-1.262-.9404-2.0977-2.3668-2.0977-1.0501 0-1.8025.5408-2.3197 1.4421-.1026.124-.1901.244-.272.3562-.3187.4367-.5534.7582-1.264.7582C7.5485 7.2853 7 6.8756 7 6.1545c0-.2786.047-.5408.1254-.8194C7.5643 3.8274 9.3354 2.5 12.0313 2.5 14.6803 2.5 17 3.9585 17 6.6954c0 1.9501-1.0815 2.917-2.6019 3.9659-1.0815.7538-1.5987 1.3274-1.5987 2.2451v.1967c0 .6555-.4702 1.1635-1.2696 1.1635-.7994 0-1.2383-.4261-1.2383-1.2946v-.2131c0-1.606.8308-2.4746 1.9593-3.294ZM5.6852 4.916C6.3672 2.5727 8.8964 1 12.0313 1c1.5807 0 3.1683.4329 4.3971 1.3862C17.6966 3.3699 18.5 4.852 18.5 6.6954c0 1.291-.3705 2.3366-1.0289 3.2184-.6173.8267-1.4449 1.4465-2.2182 1.9801-.5102.3559-.7452.5759-.8601.729-.0723.0963-.0934.154-.0934.2835v.1967c0 .6956-.2561 1.3906-.7958 1.9092-.5396.5185-1.2503.7543-1.9738.7543-.6554 0-1.4119-.1783-1.9931-.7746-.5749-.5899-.7452-1.3504-.7452-2.02v-.2131c0-1.0893.29-2.0007.8105-2.777.4965-.741 1.1563-1.287 1.7675-1.7308l.004-.0029c.717-.517 1.0667-.7928 1.2662-1.0267.1206-.1414.1487-.2145.1487-.395 0-.2354-.0756-.3394-.1439-.4-.085-.0753-.2974-.1977-.7229-.1977-.4059 0-.7111.1526-1.0187.6887l-.0637.111-.0815.0985c-.0713.0861-.1277.1634-.2063.2709-.0206.0282-.0427.0585-.067.0915-.0998.1358-.2568.347-.4607.5442-.5095.493-1.151.7517-1.9579.7517C6.7872 8.7853 5.5 7.7695 5.5 6.1545c0-.455.0782-.8586.1814-1.2255l.0038-.013Zm9.006 14.8796c0 1.7894-1.4657 3.2044-3.1928 3.2044-1.7364 0-3.1928-1.4407-3.1928-3.2044 0-1.7804 1.4411-3.2043 3.1928-3.2043a3.1887 3.1887 0 0 1 3.1928 3.2043ZM11.4984 21.5c.9091 0 1.6928-.7538 1.6928-1.7044 0-.9669-.768-1.7043-1.6928-1.7043-.9247 0-1.6928.7538-1.6928 1.7043 0 .9342.7837 1.7044 1.6928 1.7044Z" clip-rule="evenodd" style="fill:#fff"/></svg>