<svg xmlns="http://www.w3.org/2000/svg" width="50" height="50" fill="#fff" stroke="#fff"><path d="M22.2 2a1 1 0 0 0-.98.84l-.97 5.95c-1.17.34-2.29.8-3.34 1.37L12 6.66a1 1 0 0 0-1.3.1l-3.88 3.89a1 1 0 0 0-.11 1.28l3.45 4.94a16.92 16.92 0 0 0-1.4 3.36l-5.92.99a1 1 0 0 0-.84.99v5.5a1 1 0 0 0 .83.98l5.93 1.05c.35 1.18.81 2.3 1.4 3.36L6.65 38a1 1 0 0 0 .1 1.29l3.89 3.89a1 1 0 0 0 1.28.1l4.95-3.46c1.06.58 2.17 1.04 3.35 1.38l.99 5.96a1 1 0 0 0 .99.84h5.5a1 1 0 0 0 .98-.83l1.06-5.98c1.17-.35 2.28-.82 3.33-1.4l4.99 3.5a1 1 0 0 0 1.28-.11l3.89-3.9a1 1 0 0 0 .1-1.28l-3.55-4.94a16.77 16.77 0 0 0 1.36-3.31l6.02-1.06a1 1 0 0 0 .83-.98v-5.5a1 1 0 0 0-.84-.99l-6-.98c-.35-1.16-.81-2.27-1.38-3.3l3.5-5a1 1 0 0 0-.1-1.29l-3.9-3.89a1 1 0 0 0-1.28-.1l-4.93 3.54a16.76 16.76 0 0 0-3.33-1.39l-1.05-5.98a1 1 0 0 0-.98-.83h-5.5zm.86 2h3.8l1 5.69a1 1 0 0 0 .74.8c1.47.36 2.84.94 4.1 1.7a1 1 0 0 0 1.1-.05l4.67-3.36 2.7 2.7-3.33 4.74a1 1 0 0 0-.04 1.1 14.93 14.93 0 0 1 1.68 4.06 1 1 0 0 0 .81.75l5.7.93v3.8l-5.71 1.01a1 1 0 0 0-.8.75 14.8 14.8 0 0 1-1.68 4.07 1 1 0 0 0 .05 1.1l3.37 4.68-2.69 2.7-4.74-3.33a1 1 0 0 0-1.1-.03 14.9 14.9 0 0 1-4.07 1.7 1 1 0 0 0-.74.8L26.87 46h-3.82l-.94-5.66a1 1 0 0 0-.74-.8 14.9 14.9 0 0 1-4.11-1.7 1 1 0 0 0-1.09.03l-4.7 3.3-2.7-2.7 3.33-4.65a1 1 0 0 0 .04-1.1 14.86 14.86 0 0 1-1.71-4.11 1 1 0 0 0-.8-.74l-5.63-1v-3.82l5.63-.93a1 1 0 0 0 .8-.75c.37-1.47.95-2.85 1.72-4.11a1 1 0 0 0-.04-1.1l-3.28-4.7 2.7-2.69 4.66 3.34a1 1 0 0 0 1.1.04 14.83 14.83 0 0 1 4.1-1.69 1 1 0 0 0 .74-.8L23.06 4zM25 17c-4.4 0-8 3.6-8 8s3.6 8 8 8 8-3.6 8-8-3.6-8-8-8zm0 2c3.33 0 6 2.67 6 6s-2.67 6-6 6-6-2.67-6-6 2.67-6 6-6z"/></svg>